<svg viewBox="0 0 367 454" fill="none" xmlns="http://www.w3.org/2000/svg">
<path d="M172.725 48.882L190.385 38.6405C190.596 38.4185 190.848 38.2772 191.14 38.1965L191.251 38.1259V38.1562C191.784 38.0653 192.399 38.1864 193.063 38.5799L306.243 104.065C308.055 105.114 309.535 107.667 309.535 109.756V381.907C309.535 382.876 309.213 383.562 308.689 383.925L308.619 383.976C308.579 383.996 308.538 384.026 308.498 384.046L290.677 394.379C290.506 394.54 290.304 394.651 290.083 394.722L289.912 394.823V394.792C289.378 394.893 288.744 394.762 288.069 394.379L174.89 328.894C173.077 327.844 171.597 325.291 171.597 323.203V51.0615C171.597 49.9414 172.03 49.1847 172.705 48.8921L172.725 48.882Z" fill="#1B1D21"/>
<path d="M174.911 328.904C173.099 327.854 171.619 325.302 171.619 323.213V318.672L288.806 120.088L309.446 108.828C309.507 109.15 309.547 109.463 309.547 109.766V381.917C309.547 382.886 309.225 383.572 308.701 383.935L308.631 383.986C308.59 384.006 308.55 384.036 308.51 384.056L290.689 394.389C290.517 394.55 290.316 394.661 290.095 394.732L289.923 394.833V394.802C289.39 394.903 288.755 394.772 288.081 394.389L174.901 328.904H174.911Z" fill="#1B1D21"/>
<path d="M171.618 323.213C171.618 325.301 173.088 327.844 174.911 328.904L288.09 394.389C289.903 395.438 291.383 394.601 291.383 392.512V120.35C291.383 118.262 289.913 115.719 288.09 114.66L174.911 49.1746C173.098 48.1252 171.618 48.9627 171.618 51.0513V323.203V323.213Z" fill="#455A64"/>
<path d="M175.442 318.672C175.442 320.63 176.822 323.011 178.523 324L284.474 385.307C286.175 386.296 287.555 385.499 287.555 383.552V124.881C287.555 122.923 286.175 120.542 284.474 119.553L178.523 58.2455C176.822 57.2567 175.442 58.0538 175.442 60.0012V318.662V318.672Z" fill="#3E4252"/>
<path d="M210.341 76.2162L252.649 100.695L265.426 108.091C265.426 108.091 256.837 104.812 256.837 113.237C256.837 115.901 254.965 116.97 252.649 115.628L210.341 91.1496C208.025 89.8076 206.153 86.5686 206.153 83.9048C206.153 75.4695 197.564 68.8201 197.564 68.8201L210.341 76.2162Z" fill="#455A64"/>
<path d="M228.666 94.2877C228.666 96.0837 229.934 98.2733 231.495 99.1713C233.056 100.079 234.324 99.3529 234.324 97.5569C234.324 95.7608 233.056 93.5713 231.495 92.6732C229.934 91.7651 228.666 92.4916 228.666 94.2877Z" fill="#1B1D21"/>
<path d="M239.548 100.594C239.548 101.694 240.323 103.036 241.28 103.591C242.236 104.146 243.012 103.702 243.012 102.602C243.012 101.502 242.236 100.16 241.28 99.6051C240.323 99.0502 239.548 99.4941 239.548 100.594Z" fill="#1B1D21"/>
<path d="M219.966 89.2629C219.966 90.3628 220.741 91.7048 221.698 92.2597C222.654 92.8147 223.43 92.3707 223.43 91.2709C223.43 90.1711 222.654 88.8291 221.698 88.2741C220.741 87.7192 219.966 88.1631 219.966 89.2629Z" fill="#1B1D21"/>
<path d="M271.478 199.043C274.539 200.375 278.506 202.363 280.48 206.672C283.349 212.958 279.523 215.581 275.888 215.238C278.949 220.313 276.845 224.814 273.975 225.359C269.384 226.438 266.515 222.14 261.722 218.487C260.192 220.687 256.748 220.233 253.688 218.235C249.67 215.692 247.948 212.05 245.653 207.418C242.018 207.953 237.618 205.188 233.973 200.002C230.53 195.371 230.721 189.095 234.356 188.782C231.295 185.028 231.678 179.963 233.4 178.106C235.121 175.584 238.182 176.472 241.434 179.892C240.669 169.701 256.174 178.076 259.427 187.884C263.061 184.544 271.68 191.012 271.489 199.043H271.478Z" fill="#417E8C"/>
<path d="M222.514 142.024C225.574 143.356 229.541 145.344 231.515 149.652C234.384 155.938 230.558 158.562 226.924 158.219C229.984 163.294 227.88 167.794 225.011 168.339C220.419 169.419 217.55 165.12 212.757 161.468C211.227 163.667 207.783 163.213 204.723 161.216C200.705 158.673 198.984 155.03 196.688 150.399C193.053 150.934 188.653 148.169 185.009 142.983C181.565 138.351 181.756 132.075 185.391 131.762C182.33 128.009 182.713 122.944 184.435 121.087C186.156 118.565 189.217 119.452 192.469 122.873C191.704 112.682 207.21 121.057 210.462 130.864C214.096 127.525 222.715 133.992 222.524 142.024H222.514Z" fill="#417E8C"/>
<path d="M176.881 300.46C175.885 296.878 175.23 293.174 174.757 289.502C173.821 282.217 173.639 274.528 175.673 267.404C177.304 261.683 180.728 256.588 185.641 253.197C187.101 252.188 188.672 251.331 190.323 250.665C190.585 250.554 192.095 249.847 192.256 250.11C189.125 229.092 189.527 207.822 194.723 187.167C197.371 176.674 202.244 166.331 210.057 158.703C211.598 157.2 213.229 155.777 214.991 154.536C215.766 153.981 216.561 153.466 217.397 153.002C217.457 152.972 217.8 152.73 217.87 152.75C217.921 152.77 217.981 152.831 218.041 152.932L218.062 152.901L226.388 148.078C226.62 147.937 226.841 147.796 227.083 147.664C227.143 147.634 227.425 147.432 227.536 147.422H227.546C227.546 147.422 227.546 147.422 227.556 147.422C227.757 147.483 228.1 148.341 228.19 148.502C230.536 152.548 232.661 156.725 234.674 160.953C239.457 171.023 243.494 181.456 246.646 192.152C250.14 203.998 252.405 216.217 253.865 228.476C255.687 243.743 255.899 259.272 253.17 274.437C253.17 274.417 253.18 274.397 253.19 274.366C256.251 278.675 258.889 283.337 261.285 288.039C266.159 297.624 269.884 307.906 270.961 318.652C271.545 324.444 271.404 330.336 270.317 336.058C269.894 338.267 269.38 340.517 268.525 342.596L258.839 347.924C258.627 347.248 258.386 346.571 258.154 345.895L255.063 338.025C254.822 337.47 254.59 336.925 254.348 336.38C250.653 328.056 246.193 320.004 240.675 312.739C239.809 311.609 238.923 310.489 238.007 309.399C237.544 308.855 237.081 308.31 236.608 307.775C236.245 307.371 235.54 306.816 235.389 306.342C234.795 307.684 234.191 309.026 233.557 310.348C232.802 309.601 232.016 308.875 231.231 308.158C230.355 311.841 229.167 315.453 227.566 318.884L217.88 324.212C215.313 315.746 213.511 307.038 212.645 298.23C212.554 297.321 212.474 296.413 212.413 295.515C211.336 295.041 210.248 294.597 209.141 294.183C207.58 293.608 205.989 293.094 204.378 292.68C203.674 292.498 202.959 292.327 202.234 292.196C201.972 292.145 201.509 289.976 201.408 289.643C201.046 288.452 200.693 287.262 200.351 286.061C200.351 286.091 200.361 286.121 200.371 286.152C197.854 285.93 195.377 286.192 193.011 286.838C190.363 289.169 188.148 292.014 186.587 295.162L176.892 300.439L176.881 300.46Z" fill="#03744B"/>
<path d="M243.497 279.674C243.497 279.674 255.932 297.019 260.05 316.21C264.158 335.402 258.831 347.913 258.831 347.913C258.831 347.913 251.22 323.364 235.362 306.403L243.497 279.674Z" fill="#04AA6D"/>
<path d="M194.714 187.157C201.42 160.56 217.861 152.73 217.861 152.73C217.861 152.73 234.303 179.59 241.009 213.937C247.735 248.404 248.319 279.825 233.548 310.338C233.548 310.338 226.4 303.224 217.861 298.29C209.323 293.356 202.175 292.196 202.175 292.196C187.404 244.59 187.988 213.846 194.714 187.157Z" fill="#E1E6E0"/>
<path d="M192.228 250.009C192.228 250.009 179.793 252.965 175.675 267.394C171.567 281.833 176.894 300.5 176.894 300.5C176.894 300.5 184.505 284.759 200.363 286.152L192.228 249.999V250.009Z" fill="#04AA6D"/>
<path d="M217.863 152.73V298.361" stroke="#E2E8EA" stroke-miterlimit="10"/>
<path d="M239.432 280.067C239.432 280.824 239.965 281.752 240.63 282.136C241.294 282.519 241.828 282.217 241.828 281.45C241.828 280.683 241.294 279.765 240.63 279.381C239.965 278.998 239.432 279.3 239.432 280.067Z" fill="#E2E8EA"/>
<path d="M232.955 300.722C232.955 301.479 233.489 302.407 234.153 302.791C234.818 303.174 235.352 302.871 235.352 302.104C235.352 301.338 234.818 300.419 234.153 300.036C233.489 299.652 232.955 299.955 232.955 300.722Z" fill="#E2E8EA"/>
<path d="M196.293 255.115C196.293 255.871 195.759 256.174 195.095 255.801C194.43 255.417 193.897 254.499 193.897 253.732C193.897 252.965 194.43 252.673 195.095 253.046C195.759 253.429 196.293 254.348 196.293 255.115Z" fill="#E2E8EA"/>
<path d="M202.77 283.266C202.77 284.023 202.236 284.325 201.571 283.952C200.907 283.569 200.373 282.65 200.373 281.883C200.373 281.117 200.907 280.824 201.571 281.197C202.236 281.581 202.77 282.499 202.77 283.266Z" fill="#E2E8EA"/>
<path d="M217.862 252.925C217.862 252.925 230.951 296.141 217.862 324.212C204.773 280.996 217.862 252.925 217.862 252.925Z" fill="#04AA6D"/>
<path d="M197.668 177.975C205.31 158.713 217.865 152.73 217.865 152.73C217.865 152.73 230.431 173.243 238.062 201.354C233.653 198.287 226.182 193.272 217.865 188.459C209.549 183.646 202.078 180.014 197.668 177.975Z" fill="#04AA6D"/>
<path d="M207.793 225.69C202.158 216.029 202.1 205.556 207.664 202.296C213.227 199.037 222.306 204.225 227.941 213.886C233.576 223.546 233.634 234.02 228.07 237.279C222.506 240.539 213.428 235.35 207.793 225.69Z" fill="#04AA6D"/>
<path d="M210.679 223.999C206.66 217.11 206.621 209.639 210.591 207.314C214.561 204.988 221.037 208.687 225.056 215.576C229.074 222.465 229.114 229.936 225.144 232.262C221.174 234.587 214.697 230.888 210.679 223.999Z" fill="#D9EEE1"/>
<path d="M268.893 144.488L272.645 143.981L268.893 143.48L268.428 142.959L267.977 138.792L267.521 142.959L267.057 143.48L263.305 143.981L267.057 144.488L267.521 145.004L267.977 149.17L268.428 145.004L268.893 144.488Z" fill="#FFC82E"/>
<path d="M193.135 86.9408L196.887 86.3835L193.135 85.8315L192.671 85.2586L192.219 80.6756L191.763 85.2586L191.299 85.8315L187.547 86.3835L191.299 86.9408L191.763 87.5085L192.219 92.0914L192.671 87.5085L193.135 86.9408Z" fill="#FFC82E"/>
<path d="M236.721 338.088L240.473 337.531L236.721 336.979L236.257 336.406L235.805 331.823L235.349 336.406L234.885 336.979L231.133 337.531L234.885 338.088L235.349 338.656L235.805 343.239L236.257 338.656L236.721 338.088Z" fill="#FFC82E"/>
<path d="M233.726 283.047C234.418 283.047 234.418 284.084 233.726 284.084C233.034 284.084 233.034 283.047 233.726 283.047Z" fill="white"/>
<path style="mix-blend-mode:color-dodge" d="M263.582 251.466C264.071 251.938 265.041 252.054 265.749 251.728C266.456 251.402 266.629 250.755 266.141 250.283C265.652 249.812 264.681 249.696 263.974 250.022C263.267 250.348 263.093 250.995 263.582 251.466Z" fill="url(#paint0_radial_612_1703)" fill-opacity="0.9"/>
<path style="mix-blend-mode:color-dodge" d="M270.848 357.322C271.336 357.793 272.307 357.909 273.014 357.583C273.722 357.258 273.895 356.61 273.406 356.139C272.918 355.667 271.947 355.552 271.24 355.877C270.533 356.203 270.359 356.85 270.848 357.322Z" fill="url(#paint1_radial_612_1703)" fill-opacity="0.9"/>
<path style="mix-blend-mode:color-dodge" d="M270.848 357.322C271.336 357.793 272.307 357.909 273.014 357.583C273.722 357.258 273.895 356.61 273.406 356.139C272.918 355.667 271.947 355.552 271.24 355.877C270.533 356.203 270.359 356.85 270.848 357.322Z" fill="url(#paint2_radial_612_1703)" fill-opacity="0.9"/>
<path style="mix-blend-mode:color-dodge" d="M282.262 235.899C282.75 236.371 283.721 236.487 284.428 236.161C285.136 235.835 285.309 235.188 284.821 234.716C284.332 234.245 283.361 234.129 282.654 234.455C281.947 234.781 281.773 235.428 282.262 235.899Z" fill="url(#paint3_radial_612_1703)" fill-opacity="0.9"/>
<path style="mix-blend-mode:color-dodge" d="M241.789 158.064C242.278 158.536 243.248 158.652 243.956 158.326C244.663 158 244.837 157.353 244.348 156.881C243.859 156.41 242.888 156.294 242.181 156.62C241.474 156.946 241.3 157.593 241.789 158.064Z" fill="url(#paint4_radial_612_1703)" fill-opacity="0.9"/>
<path opacity="0.25" d="M228.279 412.792C230.231 412.792 232.119 412.329 233.572 411.485L255.213 398.994C257.11 397.896 258.199 396.207 258.199 394.364C258.199 392.522 257.11 390.833 255.213 389.735L185.642 349.566C184.181 348.722 182.301 348.259 180.35 348.259C178.398 348.259 176.519 348.722 175.058 349.566L153.417 362.057C151.519 363.156 150.43 364.844 150.43 366.687C150.43 368.53 151.519 370.218 153.417 371.316L222.987 411.485C224.449 412.329 226.328 412.792 228.279 412.792Z" fill="black"/>
<path d="M153.154 363.873C153.154 363.056 153.699 362.23 154.779 361.603L176.42 349.113C178.589 347.86 182.111 347.86 184.281 349.113L253.852 389.281C254.941 389.907 255.477 390.724 255.477 391.55C255.477 392.376 255.477 399.875 255.477 400.692C255.477 401.508 254.932 402.335 253.852 402.961L232.211 415.452C230.041 416.704 226.519 416.704 224.35 415.452L154.779 375.283C153.69 374.657 153.154 373.831 153.154 373.014V363.873Z" fill="#04AA6D"/>
<path opacity="0.15" d="M154.779 361.603L176.42 349.113C178.589 347.86 182.111 347.86 184.281 349.113L228.289 374.521V416.396C226.864 416.396 225.448 416.078 224.358 415.452L154.788 375.283C153.698 374.657 153.163 373.831 153.163 373.014V363.873C153.163 363.056 153.708 362.23 154.788 361.603H154.779Z" fill="black"/>
<path opacity="0.25" d="M253.852 389.281C254.941 389.907 255.477 390.724 255.477 391.55C255.477 392.376 255.477 399.875 255.477 400.692C255.477 401.509 254.932 402.335 253.852 402.961L232.211 415.452C231.121 416.078 229.705 416.396 228.28 416.396V374.521L253.852 389.281Z" fill="black"/>
<path d="M232.212 406.311L253.853 393.82C256.023 392.567 256.023 390.534 253.853 389.281L184.283 349.113C182.113 347.86 178.591 347.86 176.421 349.113L154.78 361.603C152.611 362.856 152.611 364.889 154.78 366.142L224.351 406.311C226.521 407.563 230.043 407.563 232.212 406.311Z" fill="#04AA6D"/>
<g opacity="0.2">
<path d="M232.212 406.311L253.853 393.82C256.023 392.567 256.023 390.534 253.853 389.281L184.283 349.113C182.113 347.86 178.591 347.86 176.421 349.113L154.78 361.603C152.611 362.856 152.611 364.889 154.78 366.142L224.351 406.311C226.521 407.563 230.043 407.563 232.212 406.311Z" fill="white"/>
</g>
<path d="M178.07 368.457C177.31 368.009 176.622 367.443 176.007 366.758C175.392 366.074 174.966 365.333 174.729 364.536L178.156 364.081C178.34 364.581 178.6 365.056 178.936 365.506C179.294 365.955 179.697 366.312 180.145 366.576C180.631 366.863 181.034 367.016 181.354 367.037C181.687 367.065 181.952 366.984 182.15 366.793C182.357 366.594 182.366 366.354 182.175 366.073C181.996 365.8 181.724 365.444 181.357 365.004L180.303 363.669C179.844 363.104 179.568 362.48 179.475 361.796C179.395 361.119 179.67 360.477 180.301 359.87C180.805 359.384 181.454 359.06 182.245 358.897C183.046 358.726 183.905 358.722 184.821 358.885C185.758 359.046 186.669 359.387 187.554 359.909C188.252 360.321 188.857 360.831 189.369 361.441C189.902 362.049 190.251 362.709 190.415 363.422L187.348 363.879C187.144 363.437 186.903 363.05 186.625 362.718C186.359 362.394 186.002 362.099 185.554 361.835C185.167 361.607 184.806 361.471 184.47 361.427C184.147 361.39 183.886 361.467 183.688 361.658C183.481 361.857 183.481 362.109 183.687 362.412C183.903 362.708 184.209 363.091 184.604 363.561L185.661 364.835C186.205 365.492 186.489 366.128 186.512 366.743C186.536 367.359 186.241 367.961 185.629 368.551C185.133 369.028 184.482 369.364 183.676 369.56C182.891 369.755 182.013 369.769 181.041 369.601C180.07 369.434 179.079 369.053 178.07 368.457Z" fill="white"/>
<path d="M187.258 373.624L194.097 367.041L190.883 365.145L192.829 363.272L202.473 368.959L200.527 370.832L197.312 368.937L190.473 375.52L187.258 373.624Z" fill="white"/>
<path d="M202.526 375.998L201.713 376.463L203.955 377.785L204.358 377.078C204.632 376.583 204.942 376.052 205.288 375.487C205.634 374.922 205.953 374.382 206.245 373.869L206.171 373.825C205.604 374.177 204.999 374.547 204.354 374.936C203.709 375.325 203.099 375.679 202.526 375.998ZM193.583 377.354L206.069 371.08L209.957 373.372L204.871 384.011L201.47 382.005L202.737 379.857L199.335 377.851L196.872 379.294L193.583 377.354Z" fill="white"/>
<path d="M206.404 384.915L215.189 376.458L219.787 379.17C220.659 379.684 221.377 380.24 221.941 380.839C222.514 381.428 222.818 382.055 222.852 382.718C222.886 383.382 222.538 384.065 221.808 384.767C221.177 385.375 220.474 385.771 219.698 385.957C218.922 386.143 218.124 386.176 217.304 386.056L216.533 390.889L212.945 388.773L213.798 384.702L212.565 383.974L209.618 386.811L206.404 384.915ZM214.403 382.205L215.562 382.888C216.858 383.653 217.893 383.662 218.668 382.916C219.046 382.552 219.14 382.201 218.947 381.864C218.767 381.534 218.36 381.182 217.724 380.807L216.566 380.123L214.403 382.205Z" fill="white"/>
<path d="M220.502 393.229L227.341 386.646L224.127 384.75L226.073 382.877L235.717 388.564L233.771 390.438L230.556 388.542L223.717 395.125L220.502 393.229Z" fill="white"/>
<defs>
<radialGradient id="paint0_radial_612_1703" cx="0" cy="0" r="1" gradientUnits="userSpaceOnUse" gradientTransform="translate(264.851 250.875) rotate(155.131) scale(1.40805 1.14622)">
<stop stop-color="#43FFF4"/>
<stop offset="0.1" stop-color="#43FFF4"/>
<stop offset="0.3" stop-color="#43FFF4"/>
<stop offset="0.58" stop-color="#155563"/>
<stop offset="0.92" stop-color="#232008"/>
<stop offset="1" stop-color="#140905"/>
</radialGradient>
<radialGradient id="paint1_radial_612_1703" cx="0" cy="0" r="1" gradientUnits="userSpaceOnUse" gradientTransform="translate(272.117 356.73) rotate(155.131) scale(1.40805 1.14622)">
<stop stop-color="#43FFF4"/>
<stop offset="0.1" stop-color="#43FFF4"/>
<stop offset="0.3" stop-color="#43FFF4"/>
<stop offset="0.58" stop-color="#155563"/>
<stop offset="0.92" stop-color="#232008"/>
<stop offset="1" stop-color="#140905"/>
</radialGradient>
<radialGradient id="paint2_radial_612_1703" cx="0" cy="0" r="1" gradientUnits="userSpaceOnUse" gradientTransform="translate(272.117 356.73) rotate(155.131) scale(1.40805 1.14622)">
<stop stop-color="#43FFF4"/>
<stop offset="0.1" stop-color="#43FFF4"/>
<stop offset="0.3" stop-color="#43FFF4"/>
<stop offset="0.58" stop-color="#155563"/>
<stop offset="0.92" stop-color="#232008"/>
<stop offset="1" stop-color="#140905"/>
</radialGradient>
<radialGradient id="paint3_radial_612_1703" cx="0" cy="0" r="1" gradientUnits="userSpaceOnUse" gradientTransform="translate(283.531 235.308) rotate(155.131) scale(1.40805 1.14622)">
<stop stop-color="#43FFF4"/>
<stop offset="0.1" stop-color="#43FFF4"/>
<stop offset="0.3" stop-color="#43FFF4"/>
<stop offset="0.58" stop-color="#155563"/>
<stop offset="0.92" stop-color="#232008"/>
<stop offset="1" stop-color="#140905"/>
</radialGradient>
<radialGradient id="paint4_radial_612_1703" cx="0" cy="0" r="1" gradientUnits="userSpaceOnUse" gradientTransform="translate(243.058 157.473) rotate(155.131) scale(1.40805 1.14622)">
<stop stop-color="#43FFF4"/>
<stop offset="0.1" stop-color="#43FFF4"/>
<stop offset="0.3" stop-color="#43FFF4"/>
<stop offset="0.58" stop-color="#155563"/>
<stop offset="0.92" stop-color="#232008"/>
<stop offset="1" stop-color="#140905"/>
</radialGradient>
</defs>
</svg>
